<?xml version="1.0" standalone="no"?>
<!DOCTYPE svg PUBLIC "-//W3C//DTD SVG 20010904//EN"
 "http://www.w3.org/TR/2001/REC-SVG-20010904/DTD/svg10.dtd">
<svg version="1.0" xmlns="http://www.w3.org/2000/svg"
 width="750.000000pt" height="750.000000pt" viewBox="0 0 750.000000 750.000000"
 preserveAspectRatio="xMidYMid meet">
<metadata>
Created by potrace 1.14, written by Peter Selinger 2001-2017
</metadata>
<g transform="translate(0.000000,750.000000) scale(0.100000,-0.100000)"
fill="#000000" stroke="none">
<path d="M3773 7273 c-7 -16 -18 -46 -26 -68 -8 -22 -38 -103 -67 -180 -29
-77 -59 -158 -67 -180 -7 -22 -18 -49 -23 -60 -5 -11 -30 -76 -55 -145 -25
-69 -50 -134 -55 -145 -5 -11 -16 -38 -23 -60 -8 -22 -38 -103 -67 -180 -29
-77 -59 -158 -67 -180 -7 -22 -18 -49 -23 -60 -5 -11 -30 -76 -55 -145 -25
-69 -49 -134 -55 -145 -5 -11 -16 -38 -23 -60 -27 -76 -117 -320 -127 -340 -5
-11 -16 -38 -23 -60 -13 -36 -98 -265 -133 -355 -7 -19 -33 -89 -58 -155 l-44
-120 -1359 -3 -1360 -2 -13 -24 c-7 -13 -10 -29 -6 -34 6 -10 177 -151 481
-397 184 -149 487 -396 540 -440 28 -23 111 -91 185 -151 75 -60 216 -175 315
-256 99 -81 272 -222 385 -313 113 -92 206 -169 208 -170 4 -3 -20 -98 -46
-185 -36 -118 -93 -314 -112 -380 -10 -36 -35 -121 -55 -190 -20 -69 -45 -154
-55 -190 -10 -36 -26 -90 -35 -120 -9 -30 -25 -84 -35 -120 -10 -36 -35 -121
-55 -190 -20 -69 -45 -154 -55 -190 -11 -36 -28 -94 -39 -130 -24 -81 -87
-294 -111 -380 -10 -36 -26 -90 -35 -120 -9 -30 -25 -84 -35 -120 -55 -195
-90 -311 -95 -320 -3 -6 -1 -10 5 -10 5 0 544 356 1197 790 665 443 1193 788
1200 786 12 -5 137 -89 373 -251 41 -28 120 -82 175 -120 107 -74 215 -148
335 -230 41 -28 140 -96 220 -150 80 -54 174 -119 210 -144 36 -24 107 -73
158 -108 50 -35 134 -91 185 -126 50 -35 121 -84 157 -108 36 -25 137 -94 225
-154 88 -60 178 -122 199 -137 66 -47 67 -41 28 102 -36 130 -352 1302 -372
1375 -10 39 -28 106 -40 150 -22 82 -33 123 -68 255 -11 41 -30 111 -42 155
-12 44 -28 103 -35 130 -7 28 -23 86 -35 130 -76 279 -93 356 -84 365 5 4 133
111 284 237 249 207 1028 857 1577 1316 117 98 215 182 218 187 4 6 -24 10
-73 10 -43 0 -250 5 -458 10 -208 6 -787 17 -1286 25 -499 7 -912 16 -918 20
-5 3 -15 25 -21 48 -7 23 -16 47 -20 52 -4 6 -11 26 -16 45 -6 19 -48 141 -95
270 -47 129 -129 357 -183 505 -53 149 -103 286 -110 305 -7 19 -41 114 -75
210 -35 96 -69 189 -76 207 -8 17 -14 36 -14 43 0 7 -6 26 -14 43 -16 37 -161
440 -171 477 -4 14 -11 30 -15 35 -4 6 -13 26 -18 45 -6 19 -29 87 -52 150
-23 63 -44 123 -47 133 -7 24 -16 21 -30 -10z m33 -1649 c9 -30 22 -67 30 -82
8 -15 14 -32 14 -39 0 -7 6 -27 14 -45 8 -18 42 -112 76 -208 34 -96 68 -189
76 -207 8 -17 14 -36 14 -43 0 -7 6 -26 14 -43 8 -18 52 -137 98 -265 l83
-232 127 -127 127 -127 608 -8 c334 -5 688 -12 785 -16 l177 -7 -96 -80 c-53
-44 -145 -120 -203 -170 -59 -49 -170 -142 -246 -205 -268 -221 -340 -285
-486 -429 l-148 -146 0 -252 c0 -194 3 -262 14 -295 8 -24 19 -61 24 -83 6
-22 20 -76 32 -120 12 -44 30 -114 41 -155 11 -41 26 -97 34 -125 8 -27 24
-86 35 -130 22 -84 34 -128 70 -260 45 -165 53 -196 48 -201 -3 -2 -93 55
-199 128 -107 73 -239 164 -294 201 -55 38 -154 105 -220 151 -66 45 -172 117
-235 160 -63 43 -126 87 -139 97 -22 17 -45 19 -290 19 l-266 -1 -584 -389
c-322 -214 -586 -388 -588 -387 -1 2 2 19 8 38 17 56 79 269 99 339 10 36 26
90 35 120 9 30 25 84 35 120 10 36 35 121 55 190 20 69 43 150 51 180 8 30 19
63 24 72 6 10 10 123 10 270 l0 253 -152 151 c-84 83 -220 205 -303 272 -82
66 -202 162 -265 214 -165 135 -376 306 -443 361 l-58 47 788 0 788 0 133 133
c77 77 136 145 141 162 6 17 37 102 71 190 85 224 160 423 177 470 7 22 18 49
23 60 5 11 39 101 75 200 36 99 72 194 80 212 8 17 15 38 15 46 0 9 4 18 9 22
5 3 12 19 16 35 9 41 22 30 41 -36z"/>
</g>
</svg>
